<?xml version="1.0" encoding="UTF-8" standalone="no"?>
<svg height="1480px" width="1080px">
<g>
<image xlink:href="./obj1_1.png" x="0" y="0" height="1480" width="1080"/>
<path d="M 335.462 1116.94 L 520.815 989.602 " style="stroke:#000000;stroke-width:4" />
<path d="M 832.309 619.77 L 533.712 724.029 " style="stroke:#000000;stroke-width:4" />
<path d="M 749.243 1225.4 L 520.815 989.602 " style="stroke:#000000;stroke-width:4" />
<path d="M 383.803 155.132 L 509.473 372.182 " style="stroke:#000000;stroke-width:4" />
<path d="M 182.76 570.032 L 499.647 682.806 " style="stroke:#000000;stroke-width:4" />
<path d="M 806.565 188.909 L 509.473 372.182 " style="stroke:#000000;stroke-width:4" />
<path d="M 520.815 989.602 L 533.712 724.029 " style="stroke:#000000;stroke-width:4" />
<path d="M 533.712 724.029 L 499.647 682.806 " style="stroke:#000000;stroke-width:4" />
<path d="M 509.473 372.182 L 499.647 682.806 " style="stroke:#000000;stroke-width:4" />

<circle  r="20px" cy="724.029" cx="533.712" style="color:#000000;fill:#ffffff;stroke:#000000;stroke-width:4" />
<text y="724.029" x="521.712" style="font-size:15px">1</text>
<circle  r="20px" cy="682.806" cx="499.647" style="color:#000000;fill:#ffffff;stroke:#000000;stroke-width:4" />
<text y="682.806" x="487.647" style="font-size:15px">2</text>
<circle  r="20px" cy="989.602" cx="520.815" style="color:#000000;fill:#ffffff;stroke:#000000;stroke-width:4" />
<text y="989.602" x="508.815" style="font-size:15px">3</text>
<circle  r="20px" cy="1116.94" cx="335.462" style="color:#000000;fill:#ffffff;stroke:#000000;stroke-width:4" />
<text y="1116.94" x="323.462" style="font-size:15px">4</text>
<circle  r="20px" cy="372.182" cx="509.473" style="color:#000000;fill:#ffffff;stroke:#000000;stroke-width:4" />
<text y="372.182" x="497.473" style="font-size:15px">5</text>
<circle  r="20px" cy="619.77" cx="832.309" style="color:#000000;fill:#ffffff;stroke:#000000;stroke-width:4" />
<text y="619.77" x="820.309" style="font-size:15px">6</text>
<circle  r="20px" cy="1225.4" cx="749.243" style="color:#000000;fill:#ffffff;stroke:#000000;stroke-width:4" />
<text y="1225.4" x="737.243" style="font-size:15px">7</text>
<circle  r="20px" cy="155.132" cx="383.803" style="color:#000000;fill:#ffffff;stroke:#000000;stroke-width:4" />
<text y="155.132" x="371.803" style="font-size:15px">8</text>
<circle  r="20px" cy="570.032" cx="182.76" style="color:#000000;fill:#ffffff;stroke:#000000;stroke-width:4" />
<text y="570.032" x="170.76" style="font-size:15px">9</text>
<circle  r="20px" cy="188.909" cx="806.565" style="color:#000000;fill:#ffffff;stroke:#000000;stroke-width:4" />
<text y="188.909" x="794.565" style="font-size:15px">10</text>


</g>
</svg>
