<?xml version="1.0" encoding="UTF-8" standalone="no"?>
<svg height="1232px" width="852px">
<g>
<image xlink:href="./obj1_3.png" x="0" y="0" height="1232" width="852"/>
<path d="M 655.377 403.179 L 398.287 554.772 " style="stroke:#000000;stroke-width:4" />
<path d="M 579.343 955.161 L 402.21 830.246 " style="stroke:#000000;stroke-width:4" />
<path d="M 118.247 485.991 L 374.762 591.948 " style="stroke:#000000;stroke-width:4" />
<path d="M 161.43 251.125 L 361.262 317.363 " style="stroke:#000000;stroke-width:4" />
<path d="M 217.525 1028.65 L 402.21 830.246 " style="stroke:#000000;stroke-width:4" />
<path d="M 551.665 89.0735 L 361.262 317.363 " style="stroke:#000000;stroke-width:4" />
<path d="M 398.287 554.772 L 361.262 317.363 " style="stroke:#000000;stroke-width:4" />
<path d="M 398.287 554.772 L 374.762 591.948 " style="stroke:#000000;stroke-width:4" />
<path d="M 402.21 830.246 L 374.762 591.948 " style="stroke:#000000;stroke-width:4" />

<circle  r="20px" cy="554.772" cx="398.287" style="color:#000000;fill:#ffffff;stroke:#000000;stroke-width:4" />
<text y="554.772" x="386.287" style="font-size:15px">1</text>
<circle  r="20px" cy="591.948" cx="374.762" style="color:#000000;fill:#ffffff;stroke:#000000;stroke-width:4" />
<text y="591.948" x="362.762" style="font-size:15px">2</text>
<circle  r="20px" cy="317.363" cx="361.262" style="color:#000000;fill:#ffffff;stroke:#000000;stroke-width:4" />
<text y="317.363" x="349.262" style="font-size:15px">3</text>
<circle  r="20px" cy="830.246" cx="402.21" style="color:#000000;fill:#ffffff;stroke:#000000;stroke-width:4" />
<text y="830.246" x="390.21" style="font-size:15px">4</text>
<circle  r="20px" cy="403.179" cx="655.377" style="color:#000000;fill:#ffffff;stroke:#000000;stroke-width:4" />
<text y="403.179" x="643.377" style="font-size:15px">5</text>
<circle  r="20px" cy="955.161" cx="579.343" style="color:#000000;fill:#ffffff;stroke:#000000;stroke-width:4" />
<text y="955.161" x="567.343" style="font-size:15px">6</text>
<circle  r="20px" cy="485.991" cx="118.247" style="color:#000000;fill:#ffffff;stroke:#000000;stroke-width:4" />
<text y="485.991" x="106.247" style="font-size:15px">7</text>
<circle  r="20px" cy="251.125" cx="161.43" style="color:#000000;fill:#ffffff;stroke:#000000;stroke-width:4" />
<text y="251.125" x="149.43" style="font-size:15px">8</text>
<circle  r="20px" cy="1028.65" cx="217.525" style="color:#000000;fill:#ffffff;stroke:#000000;stroke-width:4" />
<text y="1028.65" x="205.525" style="font-size:15px">9</text>
<circle  r="20px" cy="89.0735" cx="551.665" style="color:#000000;fill:#ffffff;stroke:#000000;stroke-width:4" />
<text y="89.0735" x="539.665" style="font-size:15px">10</text>


</g>
</svg>
