<?xml version="1.0" encoding="UTF-8" standalone="no"?>
<svg height="1304px" width="1172px">
<g>
<image xlink:href="./obj1_2.png" x="0" y="0" height="1304" width="1172"/>
<path d="M 980.667 559.939 L 597.698 696.177 " style="stroke:#000000;stroke-width:4" />
<path d="M 251.046 889.748 L 585.947 752.218 " style="stroke:#000000;stroke-width:4" />
<path d="M 900.789 1076.89 L 585.947 752.218 " style="stroke:#000000;stroke-width:4" />
<path d="M 442.253 143.144 L 635.571 355.681 " style="stroke:#000000;stroke-width:4" />
<path d="M 920.155 295.583 L 635.571 355.681 " style="stroke:#000000;stroke-width:4" />
<path d="M 223.761 371.175 L 564.543 578.044 " style="stroke:#000000;stroke-width:4" />
<path d="M 597.698 696.177 L 585.947 752.218 " style="stroke:#000000;stroke-width:4" />
<path d="M 597.698 696.177 L 564.543 578.044 " style="stroke:#000000;stroke-width:4" />
<path d="M 635.571 355.681 L 564.543 578.044 " style="stroke:#000000;stroke-width:4" />

<circle  r="20px" cy="696.177" cx="597.698" style="color:#000000;fill:#ffffff;stroke:#000000;stroke-width:4" />
<text y="696.177" x="585.698" style="font-size:15px">1</text>
<circle  r="20px" cy="752.218" cx="585.947" style="color:#000000;fill:#ffffff;stroke:#000000;stroke-width:4" />
<text y="752.218" x="573.947" style="font-size:15px">2</text>
<circle  r="20px" cy="578.044" cx="564.543" style="color:#000000;fill:#ffffff;stroke:#000000;stroke-width:4" />
<text y="578.044" x="552.543" style="font-size:15px">3</text>
<circle  r="20px" cy="355.681" cx="635.571" style="color:#000000;fill:#ffffff;stroke:#000000;stroke-width:4" />
<text y="355.681" x="623.571" style="font-size:15px">4</text>
<circle  r="20px" cy="559.939" cx="980.667" style="color:#000000;fill:#ffffff;stroke:#000000;stroke-width:4" />
<text y="559.939" x="968.667" style="font-size:15px">5</text>
<circle  r="20px" cy="889.748" cx="251.046" style="color:#000000;fill:#ffffff;stroke:#000000;stroke-width:4" />
<text y="889.748" x="239.046" style="font-size:15px">6</text>
<circle  r="20px" cy="1076.89" cx="900.789" style="color:#000000;fill:#ffffff;stroke:#000000;stroke-width:4" />
<text y="1076.89" x="888.789" style="font-size:15px">7</text>
<circle  r="20px" cy="143.144" cx="442.253" style="color:#000000;fill:#ffffff;stroke:#000000;stroke-width:4" />
<text y="143.144" x="430.253" style="font-size:15px">8</text>
<circle  r="20px" cy="295.583" cx="920.155" style="color:#000000;fill:#ffffff;stroke:#000000;stroke-width:4" />
<text y="295.583" x="908.155" style="font-size:15px">9</text>
<circle  r="20px" cy="371.175" cx="223.761" style="color:#000000;fill:#ffffff;stroke:#000000;stroke-width:4" />
<text y="371.175" x="211.761" style="font-size:15px">10</text>


</g>
</svg>
