<?xml version="1.0" encoding="UTF-8" standalone="no"?>
<svg height="1752px" width="716px">
<g>
<image xlink:href="./obj2_2.png" x="0" y="0" height="1752" width="716"/>
<path d="M 169.841 141.313 L 222.101 503.362 " style="stroke:#000000;stroke-width:4" />
<path d="M 296.728 102.707 L 222.101 503.362 " style="stroke:#000000;stroke-width:4" />
<path d="M 604.318 146.907 L 466.541 579.958 " style="stroke:#000000;stroke-width:4" />
<path d="M 440.515 99.4086 L 377.711 559.74 " style="stroke:#000000;stroke-width:4" />
<path d="M 251.596 1669.3 L 466.541 579.958 " style="stroke:#000000;stroke-width:4" />
<path d="M 222.101 503.362 L 377.711 559.74 " style="stroke:#000000;stroke-width:4" />
<path d="M 466.541 579.958 L 377.711 559.74 " style="stroke:#000000;stroke-width:4" />

<circle  r="20px" cy="503.362" cx="222.101" style="color:#000000;fill:#ffffff;stroke:#000000;stroke-width:4" />
<text y="503.362" x="210.101" style="font-size:15px">1</text>
<circle  r="20px" cy="559.74" cx="377.711" style="color:#000000;fill:#ffffff;stroke:#000000;stroke-width:4" />
<text y="559.74" x="365.711" style="font-size:15px">2</text>
<circle  r="20px" cy="579.958" cx="466.541" style="color:#000000;fill:#ffffff;stroke:#000000;stroke-width:4" />
<text y="579.958" x="454.541" style="font-size:15px">3</text>
<circle  r="20px" cy="141.313" cx="169.841" style="color:#000000;fill:#ffffff;stroke:#000000;stroke-width:4" />
<text y="141.313" x="157.841" style="font-size:15px">4</text>
<circle  r="20px" cy="102.707" cx="296.728" style="color:#000000;fill:#ffffff;stroke:#000000;stroke-width:4" />
<text y="102.707" x="284.728" style="font-size:15px">5</text>
<circle  r="20px" cy="146.907" cx="604.318" style="color:#000000;fill:#ffffff;stroke:#000000;stroke-width:4" />
<text y="146.907" x="592.318" style="font-size:15px">6</text>
<circle  r="20px" cy="99.4086" cx="440.515" style="color:#000000;fill:#ffffff;stroke:#000000;stroke-width:4" />
<text y="99.4086" x="428.515" style="font-size:15px">7</text>
<circle  r="20px" cy="1669.3" cx="251.596" style="color:#000000;fill:#ffffff;stroke:#000000;stroke-width:4" />
<text y="1669.3" x="239.596" style="font-size:15px">8</text>


</g>
</svg>
