<?xml version="1.0" encoding="UTF-8" standalone="no"?>
<svg height="2600px" width="1188px">
<g>
<image xlink:href="./obj2_1.png" x="0" y="0" height="2600" width="1188"/>
<path d="M 754.641 173.018 L 678.509 861.232 " style="stroke:#000000;stroke-width:4" />
<path d="M 473.579 2356.55 L 609.061 972.752 " style="stroke:#000000;stroke-width:4" />
<path d="M 956.093 151.407 L 678.509 861.232 " style="stroke:#000000;stroke-width:4" />
<path d="M 541.212 181.43 L 498.964 861.083 " style="stroke:#000000;stroke-width:4" />
<path d="M 297.377 175.801 L 498.964 861.083 " style="stroke:#000000;stroke-width:4" />
<path d="M 678.509 861.232 L 609.061 972.752 " style="stroke:#000000;stroke-width:4" />
<path d="M 609.061 972.752 L 498.964 861.083 " style="stroke:#000000;stroke-width:4" />

<circle  r="20px" cy="861.232" cx="678.509" style="color:#000000;fill:#ffffff;stroke:#000000;stroke-width:4" />
<text y="861.232" x="666.509" style="font-size:15px">1</text>
<circle  r="20px" cy="972.752" cx="609.061" style="color:#000000;fill:#ffffff;stroke:#000000;stroke-width:4" />
<text y="972.752" x="597.061" style="font-size:15px">2</text>
<circle  r="20px" cy="861.083" cx="498.964" style="color:#000000;fill:#ffffff;stroke:#000000;stroke-width:4" />
<text y="861.083" x="486.964" style="font-size:15px">3</text>
<circle  r="20px" cy="173.018" cx="754.641" style="color:#000000;fill:#ffffff;stroke:#000000;stroke-width:4" />
<text y="173.018" x="742.641" style="font-size:15px">4</text>
<circle  r="20px" cy="2356.55" cx="473.579" style="color:#000000;fill:#ffffff;stroke:#000000;stroke-width:4" />
<text y="2356.55" x="461.579" style="font-size:15px">5</text>
<circle  r="20px" cy="151.407" cx="956.093" style="color:#000000;fill:#ffffff;stroke:#000000;stroke-width:4" />
<text y="151.407" x="944.093" style="font-size:15px">6</text>
<circle  r="20px" cy="181.43" cx="541.212" style="color:#000000;fill:#ffffff;stroke:#000000;stroke-width:4" />
<text y="181.43" x="529.212" style="font-size:15px">7</text>
<circle  r="20px" cy="175.801" cx="297.377" style="color:#000000;fill:#ffffff;stroke:#000000;stroke-width:4" />
<text y="175.801" x="285.377" style="font-size:15px">8</text>


</g>
</svg>
